# xmcd CD database file
#
# Track frame offsets:
#	150
#	13537
#	26574
#	39431
#	51441
#	62515
#	73377
#	86885
#	99293
#	113131
#	126040
#	137600
#	151315
#	166080
#	177779
#
# Disc length: 2543 seconds
#
# Revision: 0
# Processed by: cddbd v1.5.2PL0 Copyright (c) Steve Scherf et al.
# Submitted via: CDex 1.94
#
DISCID=c009ed0f
DTITLE=Roy Rogers - A Treasure Of Western Favorites
DYEAR=1900
DGENRE=Country
TTITLE0=Along The Navajo Trail
TTITLE1=4 Legged Friend
TTITLE2=Don't Fence Me In
TTITLE3=Home On The Range
TTITLE4=Make Believe Cowboy
TTITLE5=My Chickashay Gal
TTITLE6=My Heart Went Thataway
TTITLE7=On The Old Spanish Trail
TTITLE8=Pecos Bill
TTITLE9=Blue Shadows On The Trail
TTITLE10=Roll On Texas Moon
TTITLE11=There's A Cloud In My Valley Of Sunshine
TTITLE12=Tumblin' Tumbleweeds
TTITLE13=Yellow Rose Of Texas
TTITLE14=Happy Trails
EXTD=
EXTT0=
EXTT1=
EXTT2=
EXTT3=
EXTT4=
EXTT5=
EXTT6=
EXTT7=
EXTT8=
EXTT9=
EXTT10=
EXTT11=
EXTT12=
EXTT13=
EXTT14=
PLAYORDER=
